# xmcd
#
# Track frame offsets:
#	150
#	21288
#	42522
#	63558
#	83025
#	103007
#	120821
#	128811
#	151656
#	168604
#	180630
#
# Disc length: 2674 seconds
#
# Revision: 14
# Processed by: cddbd v1.5.2PL0 Copyright (c) Steve Scherf et al.
# Submitted via: Jack! The Knife 20 Magnifico
#
DISCID=860a700b
DTITLE=Quiet Riot - QR
DYEAR=1988
DGENRE=Hard Rock
TTITLE0=Stay With Me Tonight
TTITLE1=Callin' The Shots
TTITLE2=Run To You
TTITLE3=I'm Fallin'
TTITLE4=King Of The Hill
TTITLE5=The Joker
TTITLE6=Lunar Obsession
TTITLE7=Don't Wanna Be Your Fool
TTITLE8=Coppin' A Feel
TTITLE9=In A Rush
TTITLE10=Empty Promises
EXTD=Spencer Proffer
EXTT0=Shortino, Banali, Cavazo, Proffer
EXTT1=Banali, Cavazo, Shortino, Waldo, Proffer
EXTT2=Shortino, Banali, Cavazo, Waldo
EXTT3=Shortino, Banali, Cavazo, Waldo, Proffer
EXTT4=Banali, Cavazo, Shortino, Rabin
EXTT5=Shortino, Banali, Cavazo, Kirksey, Proffer
EXTT6=Cavazo, Shortino, Banali
EXTT7=Shortino, Banali, Cavazo, Waldo
EXTT8=Cavazo, Banali, Shortino, Dean
EXTT9=Cavazo, Banali, Shortino, Proffer
EXTT10=Banali, Cavazo, Shortino, Proffer, Waldo
PLAYORDER=
